<svg width="36" height="36" viewBox="0 0 36 36" fill="none" xmlns="http://www.w3.org/2000/svg" shape-rendering="crispEdges">
<!-- ArgoPlane Logo - Monochrome Light (all white, for dark backgrounds) -->
<rect y="8" width="4" height="4" fill="#FFFFFF"/>
<rect y="12" width="4" height="4" fill="#FFFFFF"/>
<rect x="8" y="12" width="4" height="4" fill="#FFFFFF"/>
<rect x="8" y="16" width="4" height="4" fill="#FFFFFF"/>
<rect x="24" y="16" width="4" height="4" fill="#FFFFFF"/>
<rect x="24" y="12" width="4" height="4" fill="#FFFFFF"/>
<rect y="16" width="4" height="4" fill="#FFFFFF"/>
<rect y="20" width="4" height="4" fill="#FFFFFF"/>
<rect x="32" y="8" width="4" height="4" fill="#FFFFFF"/>
<rect x="28" y="4" width="4" height="4" fill="#FFFFFF"/>
<rect x="24" width="4" height="4" fill="#FFFFFF"/>
<rect x="20" width="4" height="4" fill="#FFFFFF"/>
<rect x="16" width="4" height="4" fill="#FFFFFF"/>
<rect x="12" width="4" height="4" fill="#FFFFFF"/>
<rect x="8" width="4" height="4" fill="#FFFFFF"/>
<rect x="4" y="4" width="4" height="4" fill="#FFFFFF"/>
<rect x="32" y="12" width="4" height="4" fill="#FFFFFF"/>
<rect x="32" y="16" width="4" height="4" fill="#FFFFFF"/>
<rect x="32" y="20" width="4" height="4" fill="#FFFFFF"/>
<rect x="4" y="24" width="4" height="4" fill="#FFFFFF"/>
<rect y="28" width="4" height="4" fill="#FFFFFF"/>
<rect x="4" y="32" width="4" height="4" fill="#FFFFFF"/>
<rect x="8" y="32" width="4" height="4" fill="#FFFFFF"/>
<rect x="12" y="28" width="4" height="4" fill="#FFFFFF"/>
<rect x="16" y="32" width="4" height="4" fill="#FFFFFF"/>
<rect x="20" y="28" width="4" height="4" fill="#FFFFFF"/>
<rect x="24" y="32" width="4" height="4" fill="#FFFFFF"/>
<rect x="28" y="32" width="4" height="4" fill="#FFFFFF"/>
<rect x="32" y="28" width="4" height="4" fill="#FFFFFF"/>
<rect x="28" y="24" width="4" height="4" fill="#FFFFFF"/>
<rect x="4" y="8" width="4" height="4" fill="#FFFFFF"/>
<rect x="4" y="12" width="4" height="4" fill="#FFFFFF"/>
<rect x="4" y="16" width="4" height="4" fill="#FFFFFF"/>
<rect x="4" y="20" width="4" height="4" fill="#FFFFFF"/>
<rect x="8" y="20" width="4" height="4" fill="#FFFFFF"/>
<rect x="8" y="24" width="4" height="4" fill="#FFFFFF"/>
<rect x="8" y="28" width="4" height="4" fill="#FFFFFF"/>
<rect x="4" y="28" width="4" height="4" fill="#FFFFFF"/>
<rect x="8" y="8" width="4" height="4" fill="#FFFFFF"/>
<rect x="8" y="4" width="4" height="4" fill="#FFFFFF"/>
<rect x="12" y="4" width="4" height="4" fill="#FFFFFF"/>
<rect x="28" y="8" width="4" height="4" fill="#FFFFFF"/>
<rect x="24" y="8" width="4" height="4" fill="#FFFFFF"/>
<rect x="20" y="8" width="4" height="4" fill="#FFFFFF"/>
<rect x="24" y="4" width="4" height="4" fill="#FFFFFF"/>
<rect x="20" y="4" width="4" height="4" fill="#FFFFFF"/>
<rect x="16" y="8" width="4" height="4" fill="#FFFFFF"/>
<rect x="16" y="4" width="4" height="4" fill="#FFFFFF"/>
<rect x="12" y="8" width="4" height="4" fill="#FFFFFF"/>
<rect x="12" y="12" width="4" height="4" fill="#FFFFFF"/>
<rect x="20" y="16" width="4" height="4" fill="#FFFFFF"/>
<rect x="20" y="12" width="4" height="4" fill="#FFFFFF"/>
<rect x="16" y="16" width="4" height="4" fill="#FFFFFF"/>
<rect x="16" y="12" width="4" height="4" fill="#FFFFFF"/>
<rect x="12" y="16" width="4" height="4" fill="#FFFFFF"/>
<rect x="12" y="20" width="4" height="4" fill="#FFFFFF"/>
<rect x="20" y="24" width="4" height="4" fill="#FFFFFF"/>
<rect x="24" y="24" width="4" height="4" fill="#FFFFFF"/>
<rect x="24" y="28" width="4" height="4" fill="#FFFFFF"/>
<rect x="28" y="28" width="4" height="4" fill="#FFFFFF"/>
<rect x="20" y="20" width="4" height="4" fill="#FFFFFF"/>
<rect x="24" y="20" width="4" height="4" fill="#FFFFFF"/>
<rect x="28" y="20" width="4" height="4" fill="#FFFFFF"/>
<rect x="28" y="16" width="4" height="4" fill="#FFFFFF"/>
<rect x="28" y="12" width="4" height="4" fill="#FFFFFF"/>
<rect x="16" y="24" width="4" height="4" fill="#FFFFFF"/>
<rect x="16" y="28" width="4" height="4" fill="#FFFFFF"/>
<rect x="16" y="20" width="4" height="4" fill="#FFFFFF"/>
<rect x="12" y="24" width="4" height="4" fill="#FFFFFF"/>
</svg>
